<?xml version="1.0" encoding="UTF-8"?>
<!DOCTYPE svg PUBLIC "-//W3C//DTD SVG 1.1//EN" "http://www.w3.org/Graphics/SVG/1.1/DTD/svg11.dtd">
<!-- Creator: CorelDRAW X8 -->
<svg xmlns="http://www.w3.org/2000/svg" xml:space="preserve" width="176.623mm" height="14.927mm" version="1.1" style="shape-rendering:geometricPrecision; text-rendering:geometricPrecision; image-rendering:optimizeQuality; fill-rule:evenodd; clip-rule:evenodd"
viewBox="0 0 17662 1493"
 xmlns:xlink="http://www.w3.org/1999/xlink">
 <defs>
  <style type="text/css">
   <![CDATA[
    .fil0 {fill:#007B91}
    .fil1 {fill:#FF6600}
    .fil2 {fill:#007B91;fill-rule:nonzero}
   ]]>
  </style>
 </defs>
 <g id="Capa_x0020_1">
  <metadata id="CorelCorpID_0Corel-Layer"/>
  <polygon class="fil0" points="20,0 1520,0 1520,782 312,286 799,1493 0,1493 "/>
  <polygon class="fil1" points="1054,1027 879,1450 458,431 1474,862 "/>
  <path class="fil2" d="M5792 1325l188 0 0 -706 217 0 0 -160 -217 0 0 -97c0,-117 2,-152 217,-196l0 -166c-341,61 -405,142 -405,339l0 120 -146 0 0 160 146 0 0 706zm837 9c59,0 118,-2 201,-15l0 -156c-74,9 -113,11 -148,11 -53,0 -77,-24 -77,-128 0,-143 0,-427 0,-427l224 0 0 -160 -224 0c0,-48 0,-294 0,-294l-187 1c0,0 0,250 0,293l-153 0 0 160 153 0c0,0 0,409 0,462 0,176 65,253 211,253z"/>
  <path class="fil2" d="M2239 1341c153,0 319,-81 367,-107l-1 91 179 0 0 -1244 -188 0 0 435c-49,-21 -200,-78 -350,-78 -145,0 -289,54 -289,452 0,400 134,451 282,451zm72 -167c-118,0 -162,-46 -162,-288 0,-238 48,-287 164,-287 105,0 235,40 283,59l0 440c-59,30 -180,76 -285,76z"/>
  <path class="fil2" d="M3377 1345c99,0 225,-23 284,-39l0 -153c-65,17 -196,32 -282,32 -159,0 -245,-45 -247,-271l582 0c0,-11 0,-70 0,-85 0,-308 -123,-407 -378,-407 -228,0 -394,108 -394,462 0,345 138,461 435,461zm-242 -555c13,-177 87,-221 196,-221 140,0 195,46 195,221l-391 0z"/>
  <path class="fil2" d="M4187 1341c258,0 393,-44 393,-282 0,-177 -69,-230 -314,-259 -188,-23 -223,-32 -223,-118 0,-80 41,-107 172,-107 88,0 253,16 312,27l0 -146c-49,-13 -176,-27 -309,-27 -234,0 -355,65 -355,258 0,203 72,234 344,273 151,22 187,37 187,110 0,102 -39,128 -205,128 -109,0 -274,-31 -324,-46l0 146c59,20 199,43 322,43z"/>
  <path class="fil2" d="M5132 1345c289,0 437,-123 437,-464 0,-339 -144,-459 -433,-459 -290,0 -441,123 -441,462 0,341 148,461 437,461zm4 -153c-152,0 -249,-55 -249,-311 0,-255 94,-304 245,-304 151,0 247,53 247,307 0,256 -92,308 -243,308z"/>
  <path class="fil2" d="M7737 907l58 171 75 0 -186 -544 -85 0 -185 544 73 0 57 -171 193 0zm-179 -55l53 -157c11,-33 20,-67 27,-99l3 0c8,32 16,64 27,100l54 156 -164 0zm392 226l70 0 0 -219c16,4 35,4 56,4 69,0 130,-20 167,-59 28,-28 42,-67 42,-116 0,-48 -18,-87 -48,-113 -32,-29 -83,-45 -153,-45 -56,0 -100,5 -134,11l0 537zm70 -487c12,-3 35,-5 66,-5 78,0 128,34 128,106 0,74 -51,115 -136,115 -23,0 -43,-2 -58,-6l0 -210zm358 487l304 0 0 -59 -233 0 0 -485 -71 0 0 544zm381 -544l0 544 71 0 0 -544 -71 0zm560 470c-29,14 -72,23 -116,23 -131,0 -208,-85 -208,-218 0,-143 85,-224 212,-224 45,0 83,10 109,23l18 -59c-19,-8 -62,-23 -129,-23 -169,0 -284,115 -284,285 0,178 114,275 268,275 66,0 118,-13 143,-26l-13 -56zm386 -97l58 171 76 0 -186 -544 -85 0 -185 544 73 0 56 -171 193 0zm-178 -55l53 -157c11,-33 20,-67 27,-99l2 0c8,32 16,64 28,100l54 156 -164 0zm745 152c-28,14 -72,23 -115,23 -132,0 -209,-85 -209,-218 0,-143 85,-224 213,-224 45,0 83,10 109,23l17 -59c-18,-8 -62,-23 -129,-23 -169,0 -284,115 -284,285 0,178 115,275 268,275 66,0 119,-13 144,-26l-14 -56zm102 -470l0 544 71 0 0 -544 -71 0zm407 553c138,0 251,-100 251,-286 0,-162 -96,-276 -245,-276 -145,0 -252,113 -252,286 0,165 100,276 245,276l1 0zm2 -57c-111,0 -174,-106 -174,-221 0,-117 59,-226 176,-226 117,0 173,113 173,221 0,123 -63,226 -174,226l-1 0zm407 48l0 -232c0,-91 -1,-156 -5,-225l2 -1c27,59 63,122 101,182l173 276 71 0 0 -544 -66 0 0 229c0,84 2,150 8,222l-2 1c-25,-56 -58,-113 -97,-177l-174 -275 -77 0 0 544 66 0zm746 -313l-211 0 0 -172 224 0 0 -59 -295 0 0 544 307 0 0 -59 -236 0 0 -196 211 0 0 -58zm88 286c30,19 87,35 139,35 129,0 190,-73 190,-156 0,-80 -46,-124 -138,-160 -75,-29 -108,-54 -108,-104 0,-37 28,-82 102,-82 50,0 86,15 103,26l19 -58c-23,-13 -64,-26 -119,-26 -106,0 -176,63 -176,148 0,76 55,122 143,153 74,28 103,57 103,108 0,55 -42,92 -114,92 -48,0 -93,-15 -125,-34l-19 58zm596 -517l0 544 71 0 0 -544 -71 0zm260 544l0 -232c0,-91 -1,-156 -5,-225l3 -1c26,59 63,122 101,182l172 276 71 0 0 -544 -66 0 0 229c0,84 2,150 8,222l-2 1c-25,-56 -57,-113 -97,-177l-174 -275 -77 0 0 544 66 0zm464 0l71 0 0 -246 205 0 0 -58 -205 0 0 -181 222 0 0 -59 -293 0 0 544zm607 9c138,0 252,-100 252,-286 0,-162 -96,-276 -245,-276 -146,0 -252,113 -252,286 0,165 100,276 244,276l1 0zm3 -57c-111,0 -174,-106 -174,-221 0,-117 58,-226 175,-226 117,0 174,113 174,221 0,123 -63,226 -174,226l-1 0zm340 48l71 0 0 -236 66 0c64,3 93,31 110,106 14,68 26,114 35,130l73 0c-11,-21 -24,-73 -41,-149 -14,-57 -39,-95 -80,-110l0 -2c56,-20 102,-67 102,-138 0,-43 -16,-80 -43,-104 -34,-30 -83,-45 -158,-45 -47,0 -99,5 -135,12l0 536zm71 -487c12,-3 35,-6 69,-6 74,0 125,31 125,101 0,62 -48,103 -123,103l-71 0 0 -198zm835 487l69 0 -33 -544 -90 0 -97 263c-24,69 -43,129 -58,184l-2 0c-14,-56 -32,-117 -55,-184l-92 -263 -90 0 -38 544 67 0 15 -233c4,-82 9,-173 10,-241l2 0c15,65 36,135 62,212l89 259 53 0 96 -264c27,-74 49,-144 69,-207l1 0c0,67 5,160 9,235l13 239zm451 -171l58 171 75 0 -186 -544 -85 0 -185 544 73 0 57 -171 193 0zm-179 -55l53 -157c11,-33 20,-67 27,-99l2 0c8,32 17,64 28,100l54 156 -164 0zm117 -441l-75 94 57 0 104 -94 -86 0zm316 667l71 0 0 -484 166 0 0 -60 -403 0 0 60 166 0 0 484zm297 -544l0 544 71 0 0 -544 -71 0zm559 470c-28,14 -72,23 -115,23 -132,0 -208,-85 -208,-218 0,-143 84,-224 212,-224 45,0 83,10 109,23l18 -59c-19,-8 -63,-23 -130,-23 -168,0 -284,115 -284,285 0,178 115,275 268,275 66,0 119,-13 144,-26l-14 -56zm387 -97l58 171 75 0 -186 -544 -84 0 -185 544 72 0 57 -171 193 0zm-179 -55l54 -157c10,-33 19,-67 26,-99l3 0c8,32 16,64 27,100l54 156 -164 0zm365 199c29,19 86,35 138,35 129,0 190,-73 190,-156 0,-80 -46,-124 -138,-160 -75,-29 -108,-54 -108,-104 0,-37 28,-82 102,-82 50,0 86,15 103,26l19 -58c-23,-13 -64,-26 -119,-26 -106,0 -176,63 -176,148 0,76 55,122 144,153 73,28 102,57 102,108 0,55 -42,92 -114,92 -48,0 -93,-15 -125,-34l-18 58z"/>
 </g>
</svg>
